<svg width="201" height="65" viewBox="0 0 201 190" fill="none" xmlns="http://www.w3.org/2000/svg">
<path fill-rule="evenodd" clip-rule="evenodd" d="M106.343 2.455C102.678 6.119 102.92 12.186 106.888 16.154C109.674 18.94 109.888 19.676 109.888 26.458V33.763L105.138 34.94C102.525 35.587 98.7104 37.215 96.6594 38.558C93.4524 40.658 91.7544 41 84.5154 41C64.7464 41 47.9154 51.541 39.3414 69.291C37.2314 73.659 34.8904 76.872 32.7794 78.295C27.9434 81.554 25.6814 86.153 25.1374 93.831C24.4734 103.216 26.1664 108.631 31.2854 113.5C33.8814 115.968 35.9544 119.09 36.7004 121.652C38.6474 128.338 45.4074 137.469 52.1764 142.557C57.6539 146.675 80.7731 147.905 97 150.205C102.396 150.97 107.03 151.853 110 153C122.245 157.729 157.936 180.157 159 179.5C159.483 179.201 151 160 149.5 156.5L153.5 153C162.5 146.5 155.243 151.05 163.5 147C174.629 141.541 187.006 130.01 189.339 119.5C189.744 117.676 191.237 115.716 193.148 114.5C198.58 111.043 200.388 106.672 200.388 97C200.388 87.059 198.49 82.161 193.263 78.609C191.132 77.161 188.651 73.797 186.409 69.314C177.453 51.412 161.053 41 141.813 41C135.132 41 133.078 40.564 128.168 38.102C124.989 36.508 120.926 34.897 119.138 34.522L115.888 33.841V26.497C115.888 19.671 116.099 18.942 118.888 16.154C125.137 9.90501 121.347 0 112.706 0C109.889 0 108.111 0.686002 106.343 2.455ZM150.567 68.824C157.349 71.208 161.649 74.243 165.654 79.472C175.249 92.002 173.536 109.696 161.669 120.634C153.359 128.295 152.071 128.5 112.388 128.5C77.6604 128.5 77.3474 128.482 72.1184 126.118C57.9274 119.705 50.4534 102.439 55.4804 87.684C57.5364 81.651 64.7944 73.617 71.2804 70.195L76.3884 67.5L110.888 67.252C142.08 67.028 145.885 67.179 150.567 68.824Z"/>
<circle cx="113.5" cy="100" r="7.5"/>
<circle cx="86.5" cy="100" r="7.5"/>
<circle cx="140.5" cy="100" r="7.5"/>
<path fill-rule="evenodd" clip-rule="evenodd" d="M90.5 36.458V36.593C89.0007 36.9761 87.1923 37.1384 84.5 37.1956V36.497C84.5 29.671 84.2889 28.942 81.5 26.154C75.251 19.905 79.041 10 87.682 10C90.499 10 92.277 10.686 94.045 12.455C97.71 16.119 97.468 22.186 93.5 26.154C90.714 28.94 90.5 29.676 90.5 36.458ZM31.7815 68.4264C34.4379 62.9144 37.8145 58.0327 41.7806 53.8632C29.9612 58.1041 20.1837 66.9116 13.979 79.314C11.7371 83.797 9.25598 87.161 7.125 88.609C1.89795 92.161 0 97.059 0 107C0 116.672 1.80798 121.043 7.23999 124.5C9.151 125.716 10.644 127.676 11.049 129.5C13.382 140.01 25.7594 151.541 36.8884 157C40.0135 158.533 40.9163 158.834 41.3193 158.968C41.4242 159.003 41.4953 159.027 41.5629 159.058C41.7043 159.123 41.8306 159.222 42.221 159.526C42.8197 159.992 44.0397 160.943 46.8884 163L50.8884 166.5C50.6401 167.079 50.2006 168.089 49.642 169.372C46.8257 175.839 40.9854 189.25 41.3884 189.5C41.8385 189.778 48.4845 185.925 56.931 181.029L56.9321 181.028C68.4531 174.349 83.3234 165.729 90.3884 163C93.3579 161.853 97.9921 160.97 103.388 160.205C104.398 160.062 105.435 159.923 106.492 159.787C103.44 158.972 99.5575 158.287 95.2299 157.673C90.3277 156.976 84.854 156.369 79.3674 155.76L79.3613 155.759L79.3609 155.759C64.8638 154.15 50.2775 152.531 45.9054 149.237C38.4567 143.625 31.0178 133.554 28.8754 126.179C28.0544 123.354 25.7733 119.91 22.9166 117.188C17.2836 111.818 15.4205 105.845 16.1512 95.4934C16.7499 87.0248 19.239 81.9521 24.5605 78.3575C26.8835 76.7881 29.4596 73.2441 31.7815 68.4264Z" fill-opacity="0.62"/>
</svg>
